<svg xmlns="http://www.w3.org/2000/svg" width="10" height="8" viewBox="0 0 10 8"><g transform="translate(-2 -4)"><path d="M4.45,12H2.5a.5.5,0,0,1,0-1H4.45a.5.5,0,0,1,0,1Zm7.05,0H9.545a.5.5,0,0,1,0-1H11.5a.5.5,0,0,1,0,1Z" transform="translate(0 -3.5)" fill="#4fd17f"/><path d="M10.225,12a.5.5,0,0,1-.47-.329l-2.08-5.71L6.87,8.171a.5.5,0,1,1-.939-.342l1.275-3.5A.5.5,0,0,1,7.675,4h0a.5.5,0,0,1,.47.329l2.079,5.708.8-2.207a.5.5,0,1,1,.94.341l-1.27,3.5a.5.5,0,0,1-.47.329Z" transform="translate(-1.95)" fill="#4fd17f"/></g></svg>