<svg xmlns="http://www.w3.org/2000/svg" width="20" height="20" viewBox="0 0 20 20"><g transform="translate(-2 -2)"><path d="M12,17.5A5.5,5.5,0,1,1,17.5,12,5.5,5.5,0,0,1,12,17.5Z" fill="#1f2d40"/><path d="M12,5a1,1,0,0,1-1-1V3a1,1,0,0,1,2,0V4a1,1,0,0,1-1,1Zm0,17a1,1,0,0,1-1-1V20a1,1,0,0,1,2,0v1a1,1,0,0,1-1,1Zm9-9H20a1,1,0,0,1,0-2h1a1,1,0,0,1,0,2ZM4,13H3a1,1,0,0,1,0-2H4a1,1,0,0,1,0,2Zm14.364,6.364a1,1,0,0,1-.707-.293l-.707-.707a1,1,0,0,1,1.414-1.414l.707.707a1,1,0,0,1-.707,1.707ZM6.343,7.343a1,1,0,0,1-.707-.293l-.707-.707A1,1,0,1,1,6.343,4.929l.707.707a1,1,0,0,1-.707,1.707ZM5.636,19.364a1,1,0,0,1-.707-1.707l.707-.707A1,1,0,1,1,7.05,18.364l-.707.707a1,1,0,0,1-.707.293ZM17.657,7.343a1,1,0,0,1-.707-1.707l.707-.707a1,1,0,1,1,1.414,1.414l-.707.707a1,1,0,0,1-.707.293Z" fill="#8b8c9f"/></g></svg>