<svg xmlns="http://www.w3.org/2000/svg" width="19.985" height="19.984" viewBox="0 0 19.985 19.984"><g transform="translate(-2 -2)"><path d="M19.484,21.984a2.493,2.493,0,0,1-1.768-.731l-2.979-2.98a2.5,2.5,0,0,1,3.535-3.535l2.98,2.98a2.5,2.5,0,0,1,0,3.535h0A2.493,2.493,0,0,1,19.484,21.984ZM20.9,20.9Z" fill="#1f2d40"/><path d="M13.186,14.6l1,1A2.473,2.473,0,0,1,15.6,14.183l-1-1A7.028,7.028,0,0,1,13.186,14.6Z" fill="#8b8c9f"/><circle cx="5" cy="5" r="5" transform="translate(4.05 4.05)" fill="#8b8c9f"/><path d="M9,2a7,7,0,1,0,7,7A7,7,0,0,0,9,2Zm.05,12.05a5,5,0,1,1,5-5A5,5,0,0,1,9.05,14.05Z" fill="#1f2d40"/></g></svg>