<svg xmlns="http://www.w3.org/2000/svg" width="9.987" height="9.987" viewBox="0 0 9.987 9.987"><g transform="translate(-1 -1)"><ellipse cx="1" cy="0.5" rx="1" ry="0.5" transform="translate(3.994 4.994)" fill="#9b2041"/><circle cx="0.5" cy="0.5" r="0.5" transform="translate(3.994 6.994)" fill="#ff9fb9"/><ellipse cx="1" cy="0.5" rx="1" ry="0.5" transform="translate(5.994 5.994)" fill="#9b2041"/><circle cx="0.5" cy="0.5" r="0.5" transform="translate(6.994 3.994)" fill="#ff9fb9"/><path d="M5.994,4.178a.454.454,0,0,1-.454-.454V1.454a.454.454,0,0,1,.908,0v2.27A.454.454,0,0,1,5.994,4.178Zm0,6.81a.454.454,0,0,1-.454-.454V8.263a.454.454,0,0,1,.908,0v2.27A.454.454,0,0,1,5.994,10.987Zm4.54-4.54H8.717a.454.454,0,1,1,0-.908h1.816a.454.454,0,1,1,0,.908Zm-7.263,0H1.454a.454.454,0,0,1,0-.908H3.27a.454.454,0,0,1,0,.908Z" fill="#ff9fb9"/><path d="M9.842,7.572a.454.454,0,0,1,0-.908h1.335a4.092,4.092,0,0,0-3.6-3.6V4.848a.454.454,0,0,1-.908,0V3.059a4.092,4.092,0,0,0-3.6,3.6H4.394a.454.454,0,0,1,0,.908H3.059a4.092,4.092,0,0,0,3.6,3.6V9.388a.454.454,0,1,1,.908,0v1.789a4.092,4.092,0,0,0,3.6-3.6ZM5.756,8.934A.454.454,0,1,1,6.21,8.48.454.454,0,0,1,5.756,8.934Zm.227-1.816a.681.681,0,1,1,.681-.681A.681.681,0,0,1,5.983,7.118ZM8.253,8.48A.681.681,0,1,1,8.934,7.8.681.681,0,0,1,8.253,8.48ZM8.48,6.21a.454.454,0,1,1,.454-.454A.454.454,0,0,1,8.48,6.21Z" transform="translate(-1.124 -1.124)" fill="#f24d7a"/><path d="M4.405,5.047a4.114,4.114,0,0,1,.642-.642L4.7,4.062a.454.454,0,0,0-.642.642Zm0,5.091-.344.344a.454.454,0,0,0,.642.642l.344-.344a4.114,4.114,0,0,1-.642-.642Zm6.375,0a4.114,4.114,0,0,1-.642.642l.344.344a.454.454,0,0,0,.642-.642Zm0-5.091.344-.344a.454.454,0,1,0-.642-.642l-.344.344a4.114,4.114,0,0,1,.642.642Z" transform="translate(-1.599 -1.599)" fill="#9b2041"/></g></svg>